<svg xmlns="http://www.w3.org/2000/svg" viewBox="0 0 32 32" width="32" height="32">
  <defs>
    <linearGradient id="commGrad" x1="0%" y1="0%" x2="100%" y2="100%">
      <stop offset="0%" stop-color="#10B981" />
      <stop offset="100%" stop-color="#059669" />
    </linearGradient>
  </defs>
  <rect width="32" height="32" rx="8" fill="#0D1117" />
  <!-- Speech bubbles -->
  <path d="M12 9c-3.9 0-7 2.5-7 5.5 0 1.8 1.1 3.4 2.8 4.3l-.8 2.2 2.7-1.3c.7.2 1.5.3 2.3.3 3.9 0 7-2.5 7-5.5S15.9 9 12 9z" fill="url(#commGrad)" />
  <path d="M20 13c-3.3 0-6 2.1-6 4.7.7 0 1.5-.1 2.2-.3l2.3 1.1-.7-1.9c1.4-.8 2.2-2.1 2.2-3.6 0-2.6-2.7-4.7-6-4.7z" fill="#34D399" opacity="0.8" />
</svg>