<svg xmlns="http://www.w3.org/2000/svg" viewBox="0 0 32 32" width="32" height="32">
  <defs>
    <linearGradient id="goldGrad" x1="0%" y1="0%" x2="100%" y2="100%">
      <stop offset="0%" stop-color="#FBBF24" />
      <stop offset="100%" stop-color="#F59E0B" />
    </linearGradient>
  </defs>
  <rect width="32" height="32" rx="8" fill="#0D1117" />
  <path d="M9 10h14v7c0 3.9-3.1 7-7 7s-7-3.1-7-7v-7zm7 14v4m-5 0h10" stroke="url(#goldGrad)" stroke-width="2.5" stroke-linecap="round" stroke-linejoin="round" fill="none" />
  <path d="M6 10c-1 0-2 1-2 3v2c0 2 1 3 2 3h3v-8H6zm20 0c1 0 2 1 2 3v2c0 2-1 3-2 3h-3v-8h3z" fill="url(#goldGrad)" />
</svg>